<?xml version="1.0" encoding="UTF-8"?>
<svg id="Lag_1" data-name="Lag 1" xmlns="http://www.w3.org/2000/svg" viewBox="0 0 2343.34 1282.32">
  <defs>
    <style>
      .cls-1 {
        letter-spacing: 0em;
      }

      .cls-2 {
        font-family: MyriadPro-Regular, 'Myriad Pro';
        font-size: 60px;
      }

      .cls-2, .cls-3 {
        stroke-miterlimit: 10;
      }

      .cls-2, .cls-3, .cls-4 {
        fill: #fff;
      }

      .cls-2, .cls-3, .cls-4, .cls-5 {
        stroke: #000;
      }

      .cls-6 {
        letter-spacing: 0em;
      }

      .cls-7 {
        letter-spacing: 0em;
      }

      .cls-4, .cls-5 {
        stroke-linejoin: bevel;
        stroke-width: .22px;
      }

      .cls-8 {
        letter-spacing: 0em;
      }

      .cls-5 {
        fill: none;
      }
    </style>
  </defs>
  <path class="cls-4" d="m1864.93,1148.92l45.28-78.42c9.73-16.86,22.97-31.43,38.82-42.73,68.89-37.61,104.38-116.43,86.88-192.94-17.5-76.51-83.43-138.05-161.81-141.97v45.04h-18.14v-45.05c-.06,0-.13,0-.19,0-78.39,3.93-144.32,65.46-161.81,141.97-17.5,76.51,17.99,155.33,86.88,192.94,15.85,11.3,29.09,25.87,38.82,42.73l45.28,78.42h0Z"/>
  <path class="cls-4" d="m1533.31,783.31h-18.14v-44.99c-68.96,3.95-126.42,59.14-140.68,126.73-14.26,67.59,18.51,136.35,80,167.83,13.65,9.51,25.04,21.91,33.36,36.32l36.39,63.03,36.39-63.03c8.32-14.41,19.71-26.81,33.36-36.32,61.49-31.48,94.27-100.25,80-167.83-14.26-67.59-71.72-122.78-140.68-126.73v44.99h0Z"/>
  <path class="cls-4" d="m1679.95,1227.81h18.14v44.9c59.6-3.99,108.61-52.73,119.63-111.44,11.01-58.71-19.1-117.43-73.2-142.74-11.44-7.71-20.97-17.92-27.86-29.86l-27.63-47.86-27.63,47.86c-6.89,11.94-16.42,22.16-27.86,29.86-54.1,25.31-84.21,84.03-73.2,142.74,11.01,58.71,60.03,107.45,119.63,111.44v-44.9h0Z"/>
  <path class="cls-4" d="m2083.78,991.48h18.14v-44.77c50.32,4.05,90.96,46.19,98.69,96.07,7.73,49.89-19.79,98.56-66.52,117.65-9.2,5.87-16.85,13.87-22.31,23.32l-18.93,32.79-18.93-32.79c-5.46-9.45-13.11-17.45-22.31-23.32-46.73-19.09-74.25-67.76-66.52-117.65,7.73-49.89,48.37-92.03,98.69-96.07v44.77Z"/>
  <g>
    <path class="cls-3" d="m47.08,48.81h5.22v27.06c0,10.74-5.28,14.04-12.24,14.04-1.92,0-4.26-.42-5.58-.96l.78-4.26c1.08.42,2.64.78,4.38.78,4.68,0,7.44-2.1,7.44-10.02v-26.64Z"/>
    <path class="cls-3" d="m81.93,70.29h-15.72v14.58h17.52v4.38h-22.74v-40.44h21.84v4.38h-16.62v12.78h15.72v4.32Z"/>
    <path class="cls-3" d="m89.8,82.89c2.34,1.44,5.76,2.64,9.36,2.64,5.34,0,8.46-2.82,8.46-6.9,0-3.78-2.16-5.94-7.62-8.04-6.6-2.34-10.68-5.76-10.68-11.46,0-6.3,5.22-10.98,13.08-10.98,4.14,0,7.14.96,8.94,1.98l-1.44,4.26c-1.32-.72-4.02-1.92-7.68-1.92-5.52,0-7.62,3.3-7.62,6.06,0,3.78,2.46,5.64,8.04,7.8,6.84,2.64,10.32,5.94,10.32,11.88,0,6.24-4.62,11.64-14.16,11.64-3.9,0-8.16-1.14-10.32-2.58l1.32-4.38Z"/>
    <path class="cls-3" d="m120.09,49.29c2.52-.42,5.82-.78,10.02-.78,5.16,0,8.94,1.2,11.34,3.36,2.22,1.92,3.54,4.86,3.54,8.46s-1.08,6.54-3.12,8.64c-2.76,2.94-7.26,4.44-12.36,4.44-1.56,0-3-.06-4.2-.36v16.2h-5.22v-39.96Zm5.22,19.5c1.14.3,2.58.42,4.32.42,6.3,0,10.14-3.06,10.14-8.64s-3.78-7.92-9.54-7.92c-2.28,0-4.02.18-4.92.42v15.72Z"/>
    <path class="cls-3" d="m172.95,70.29h-15.72v14.58h17.52v4.38h-22.74v-40.44h21.84v4.38h-16.62v12.78h15.72v4.32Z"/>
    <path class="cls-3" d="m181.53,49.35c2.64-.54,6.42-.84,10.02-.84,5.58,0,9.18,1.02,11.7,3.3,2.04,1.8,3.18,4.56,3.18,7.68,0,5.34-3.36,8.88-7.62,10.32v.18c3.12,1.08,4.98,3.96,5.94,8.16,1.32,5.64,2.28,9.54,3.12,11.1h-5.4c-.66-1.14-1.56-4.62-2.7-9.66-1.2-5.58-3.36-7.68-8.1-7.86h-4.92v17.52h-5.22v-39.9Zm5.22,18.42h5.34c5.58,0,9.12-3.06,9.12-7.68,0-5.22-3.78-7.5-9.3-7.56-2.52,0-4.32.24-5.16.48v14.76Z"/>
    <path class="cls-3" d="m260.61,71.49c-.3-5.64-.66-12.42-.6-17.46h-.18c-1.38,4.74-3.06,9.78-5.1,15.36l-7.14,19.62h-3.96l-6.54-19.26c-1.92-5.7-3.54-10.92-4.68-15.72h-.12c-.12,5.04-.42,11.82-.78,17.88l-1.08,17.34h-4.98l2.82-40.44h6.66l6.9,19.56c1.68,4.98,3.06,9.42,4.08,13.62h.18c1.02-4.08,2.46-8.52,4.26-13.62l7.2-19.56h6.66l2.52,40.44h-5.1l-1.02-17.76Z"/>
    <path class="cls-3" d="m280.71,76.53l-4.2,12.72h-5.4l13.74-40.44h6.3l13.8,40.44h-5.58l-4.32-12.72h-14.34Zm13.26-4.08l-3.96-11.64c-.9-2.64-1.5-5.04-2.1-7.38h-.12c-.6,2.4-1.26,4.86-2.04,7.32l-3.96,11.7h12.18Z"/>
    <path class="cls-3" d="m310.89,48.81h5.22v19.5h.18c1.08-1.56,2.16-3,3.18-4.32l12.36-15.18h6.48l-14.64,17.16,15.78,23.28h-6.18l-13.32-19.86-3.84,4.44v15.42h-5.22v-40.44Z"/>
    <path class="cls-3" d="m364.35,70.29h-15.72v14.58h17.52v4.38h-22.74v-40.44h21.84v4.38h-16.62v12.78h15.72v4.32Z"/>
    <path class="cls-3" d="m372.21,82.89c2.34,1.44,5.76,2.64,9.36,2.64,5.34,0,8.46-2.82,8.46-6.9,0-3.78-2.16-5.94-7.62-8.04-6.6-2.34-10.68-5.76-10.68-11.46,0-6.3,5.22-10.98,13.08-10.98,4.14,0,7.14.96,8.94,1.98l-1.44,4.26c-1.32-.72-4.02-1.92-7.68-1.92-5.52,0-7.62,3.3-7.62,6.06,0,3.78,2.46,5.64,8.04,7.8,6.84,2.64,10.32,5.94,10.32,11.88,0,6.24-4.62,11.64-14.16,11.64-3.9,0-8.16-1.14-10.32-2.58l1.32-4.38Z"/>
    <path class="cls-3" d="m67.05,159.93c-1.92.96-5.76,1.92-10.68,1.92-11.4,0-19.98-7.2-19.98-20.46s8.58-21.24,21.12-21.24c5.04,0,8.22,1.08,9.6,1.8l-1.26,4.26c-1.98-.96-4.8-1.68-8.16-1.68-9.48,0-15.78,6.06-15.78,16.68,0,9.9,5.7,16.26,15.54,16.26,3.18,0,6.42-.66,8.52-1.68l1.08,4.14Z"/>
    <path class="cls-3" d="m106.89,140.61c0,13.92-8.46,21.3-18.78,21.3s-18.18-8.28-18.18-20.52c0-12.84,7.98-21.24,18.78-21.24s18.18,8.46,18.18,20.46Zm-31.38.66c0,8.64,4.68,16.38,12.9,16.38s12.96-7.62,12.96-16.8c0-8.04-4.2-16.44-12.9-16.44s-12.96,7.98-12.96,16.86Z"/>
    <path class="cls-3" d="m113.68,161.25v-40.44h5.7l12.96,20.46c3,4.74,5.34,9,7.26,13.14l.12-.06c-.48-5.4-.6-10.32-.6-16.62v-16.92h4.92v40.44h-5.28l-12.84-20.52c-2.82-4.5-5.52-9.12-7.56-13.5l-.18.06c.3,5.1.42,9.96.42,16.68v17.28h-4.92Z"/>
    <path class="cls-3" d="m174.09,142.29h-15.72v14.58h17.52v4.38h-22.74v-40.44h21.84v4.38h-16.62v12.78h15.72v4.32Z"/>
    <path class="cls-3" d="m195.39,120.81h5.22v36.06h17.28v4.38h-22.5v-40.44Z"/>
    <path class="cls-3" d="m230.25,148.53l-4.2,12.72h-5.4l13.74-40.44h6.3l13.8,40.44h-5.58l-4.32-12.72h-14.34Zm13.26-4.08l-3.96-11.64c-.9-2.64-1.5-5.04-2.1-7.38h-.12c-.6,2.4-1.26,4.86-2.04,7.32l-3.96,11.7h12.18Z"/>
    <path class="cls-3" d="m294.27,143.49c-.3-5.64-.66-12.42-.6-17.46h-.18c-1.38,4.74-3.06,9.78-5.1,15.36l-7.14,19.62h-3.96l-6.54-19.26c-1.92-5.7-3.54-10.92-4.68-15.72h-.12c-.12,5.04-.42,11.82-.78,17.88l-1.08,17.34h-4.98l2.82-40.44h6.66l6.9,19.56c1.68,4.98,3.06,9.42,4.08,13.62h.18c1.02-4.08,2.46-8.52,4.26-13.62l7.2-19.56h6.66l2.52,40.44h-5.1l-1.02-17.76Z"/>
    <path class="cls-3" d="m308.43,121.29c2.52-.42,5.82-.78,10.02-.78,5.16,0,8.94,1.2,11.34,3.36,2.22,1.92,3.54,4.86,3.54,8.46s-1.08,6.54-3.12,8.64c-2.76,2.94-7.26,4.44-12.36,4.44-1.56,0-3-.06-4.2-.36v16.2h-5.22v-39.96Zm5.22,19.5c1.14.3,2.58.42,4.32.42,6.3,0,10.14-3.06,10.14-8.64s-3.78-7.92-9.54-7.92c-2.28,0-4.02.18-4.92.42v15.72Z"/>
    <path class="cls-3" d="m59.2,197.97c-1.08-.06-2.46,0-3.96.24-8.28,1.38-12.66,7.44-13.56,13.86h.18c1.86-2.46,5.1-4.5,9.42-4.5,6.9,0,11.76,4.98,11.76,12.6,0,7.14-4.86,13.74-12.96,13.74s-13.8-6.48-13.8-16.62c0-7.68,2.76-13.74,6.6-17.58,3.24-3.18,7.56-5.16,12.48-5.76,1.56-.24,2.88-.3,3.84-.3v4.32Zm-1.5,22.5c0-5.58-3.18-8.94-8.04-8.94-3.18,0-6.12,1.98-7.56,4.8-.36.6-.6,1.38-.6,2.34.12,6.42,3.06,11.16,8.58,11.16,4.56,0,7.62-3.78,7.62-9.36Z"/>
    <path class="cls-3" d="m68.14,230.13c0-2.22,1.5-3.78,3.6-3.78s3.54,1.56,3.54,3.78-1.38,3.78-3.6,3.78c-2.1,0-3.54-1.62-3.54-3.78Z"/>
    <path class="cls-3" d="m96.45,233.25v-10.62h-18.12v-3.48l17.4-24.9h5.7v24.24h5.46v4.14h-5.46v10.62h-4.98Zm0-14.76v-13.02c0-2.04.06-4.08.18-6.12h-.18c-1.2,2.28-2.16,3.96-3.24,5.76l-9.54,13.26v.12h12.78Z"/>
    <path class="cls-3" d="m112.59,212.07c0-3-.06-5.46-.24-7.86h4.62l.24,4.68h.18c1.62-2.76,4.32-5.34,9.12-5.34,3.96,0,6.96,2.4,8.22,5.82h.12c.9-1.62,2.04-2.88,3.24-3.78,1.74-1.32,3.66-2.04,6.42-2.04,3.84,0,9.54,2.52,9.54,12.6v17.1h-5.16v-16.44c0-5.58-2.04-8.94-6.3-8.94-3,0-5.34,2.22-6.24,4.8-.24.72-.42,1.68-.42,2.64v17.94h-5.16v-17.4c0-4.62-2.04-7.98-6.06-7.98-3.3,0-5.7,2.64-6.54,5.28-.3.78-.42,1.68-.42,2.58v17.52h-5.16v-21.18Z"/>
    <path class="cls-3" d="m162.63,212.07c0-3-.06-5.46-.24-7.86h4.62l.24,4.68h.18c1.62-2.76,4.32-5.34,9.12-5.34,3.96,0,6.96,2.4,8.22,5.82h.12c.9-1.62,2.04-2.88,3.24-3.78,1.74-1.32,3.66-2.04,6.42-2.04,3.84,0,9.54,2.52,9.54,12.6v17.1h-5.16v-16.44c0-5.58-2.04-8.94-6.3-8.94-3,0-5.34,2.22-6.24,4.8-.24.72-.42,1.68-.42,2.64v17.94h-5.16v-17.4c0-4.62-2.04-7.98-6.06-7.98-3.3,0-5.7,2.64-6.54,5.28-.3.78-.42,1.68-.42,2.58v17.52h-5.16v-21.18Z"/>
  </g>
  <g>
    <path class="cls-3" d="m5.06,611.13c2.28-.48,5.88-.84,9.54-.84,5.22,0,8.58.9,11.1,2.94,2.1,1.56,3.36,3.96,3.36,7.14,0,3.9-2.58,7.32-6.84,8.88v.12c3.84.96,8.34,4.14,8.34,10.14,0,3.48-1.38,6.12-3.42,8.1-2.82,2.58-7.38,3.78-13.98,3.78-3.6,0-6.36-.24-8.1-.48v-39.78Zm5.22,16.56h4.74c5.52,0,8.76-2.88,8.76-6.78,0-4.74-3.6-6.6-8.88-6.6-2.4,0-3.78.18-4.62.36v13.02Zm0,19.38c1.02.18,2.52.24,4.38.24,5.4,0,10.38-1.98,10.38-7.86,0-5.52-4.74-7.8-10.44-7.8h-4.32v15.42Z"/>
    <path class="cls-3" d="m63.92,636.27c0,10.74-7.44,15.42-14.46,15.42-7.86,0-13.92-5.76-13.92-14.94,0-9.72,6.36-15.42,14.4-15.42s13.98,6.06,13.98,14.94Zm-23.04.3c0,6.36,3.66,11.16,8.82,11.16s8.82-4.74,8.82-11.28c0-4.92-2.46-11.16-8.7-11.16s-8.94,5.76-8.94,11.28Z"/>
    <path class="cls-3" d="m76.94,613.65v8.34h7.56v4.02h-7.56v15.66c0,3.6,1.02,5.64,3.96,5.64,1.38,0,2.4-.18,3.06-.36l.24,3.96c-1.02.42-2.64.72-4.68.72-2.46,0-4.44-.78-5.7-2.22-1.5-1.56-2.04-4.14-2.04-7.56v-15.84h-4.5v-4.02h4.5v-6.96l5.16-1.38Z"/>
    <path class="cls-3" d="m96.8,613.65v8.34h7.56v4.02h-7.56v15.66c0,3.6,1.02,5.64,3.96,5.64,1.38,0,2.4-.18,3.06-.36l.24,3.96c-1.02.42-2.64.72-4.68.72-2.46,0-4.44-.78-5.7-2.22-1.5-1.56-2.04-4.14-2.04-7.56v-15.84h-4.5v-4.02h4.5v-6.96l5.16-1.38Z"/>
    <path class="cls-3" d="m136.22,636.27c0,10.74-7.44,15.42-14.46,15.42-7.86,0-13.92-5.76-13.92-14.94,0-9.72,6.36-15.42,14.4-15.42s13.98,6.06,13.98,14.94Zm-23.04.3c0,6.36,3.66,11.16,8.82,11.16s8.82-4.74,8.82-11.28c0-4.92-2.46-11.16-8.7-11.16s-8.94,5.76-8.94,11.28Z"/>
    <path class="cls-3" d="m142.88,629.85c0-3-.06-5.46-.24-7.86h4.62l.24,4.68h.18c1.62-2.76,4.32-5.34,9.12-5.34,3.96,0,6.96,2.4,8.22,5.82h.12c.9-1.62,2.04-2.88,3.24-3.78,1.74-1.32,3.66-2.04,6.42-2.04,3.84,0,9.54,2.52,9.54,12.6v17.1h-5.16v-16.44c0-5.58-2.04-8.94-6.3-8.94-3,0-5.34,2.22-6.24,4.8-.24.72-.42,1.68-.42,2.64v17.94h-5.16v-17.4c0-4.62-2.04-7.98-6.06-7.98-3.3,0-5.7,2.64-6.54,5.28-.3.78-.42,1.68-.42,2.58v17.52h-5.16v-21.18Z"/>
    <path class="cls-3" d="m25.58,721.95c-1.38.72-4.44,1.68-8.34,1.68-8.76,0-14.46-5.94-14.46-14.82s6.12-15.42,15.6-15.42c3.12,0,5.88.78,7.32,1.5l-1.2,4.08c-1.26-.72-3.24-1.38-6.12-1.38-6.66,0-10.26,4.92-10.26,10.98,0,6.72,4.32,10.86,10.08,10.86,3,0,4.98-.78,6.48-1.44l.9,3.96Z"/>
    <path class="cls-3" d="m37.64,685.83c.06,1.8-1.26,3.24-3.36,3.24-1.86,0-3.18-1.44-3.18-3.24s1.38-3.3,3.3-3.3,3.24,1.44,3.24,3.3Zm-5.88,37.2v-29.04h5.28v29.04h-5.28Z"/>
    <path class="cls-3" d="m45.8,703.05c0-3.42-.06-6.36-.24-9.06h4.62l.18,5.7h.24c1.32-3.9,4.5-6.36,8.04-6.36.6,0,1.02.06,1.5.18v4.98c-.54-.12-1.08-.18-1.8-.18-3.72,0-6.36,2.82-7.08,6.78-.12.72-.24,1.56-.24,2.46v15.48h-5.22v-19.98Z"/>
    <path class="cls-3" d="m85.52,721.95c-1.38.72-4.44,1.68-8.34,1.68-8.76,0-14.46-5.94-14.46-14.82s6.12-15.42,15.6-15.42c3.12,0,5.88.78,7.32,1.5l-1.2,4.08c-1.26-.72-3.24-1.38-6.12-1.38-6.66,0-10.26,4.92-10.26,10.98,0,6.72,4.32,10.86,10.08,10.86,3,0,4.98-.78,6.48-1.44l.9,3.96Z"/>
    <path class="cls-3" d="m91.7,680.43h5.28v42.6h-5.28v-42.6Z"/>
    <path class="cls-3" d="m108.8,709.47c.12,7.14,4.68,10.08,9.96,10.08,3.78,0,6.06-.66,8.04-1.5l.9,3.78c-1.86.84-5.04,1.8-9.66,1.8-8.94,0-14.28-5.88-14.28-14.64s5.16-15.66,13.62-15.66c9.48,0,12,8.34,12,13.68,0,1.08-.12,1.92-.18,2.46h-20.4Zm15.48-3.78c.06-3.36-1.38-8.58-7.32-8.58-5.34,0-7.68,4.92-8.1,8.58h15.42Z"/>
  </g>
  <path class="cls-4" d="m1937.43,1237.69h18.14v44.53c35.67-3.6,64.22-37.2,71.85-72.23,7.64-35.03-8.13-70.99-39.06-89.11-10.14-10.56-18.51-22.69-24.79-35.92l-17.07-35.98-17.07,35.98c-6.28,13.23-14.65,25.36-24.79,35.92-30.93,18.12-46.7,54.08-39.06,89.11,7.64,35.03,36.19,68.63,71.85,72.23v-44.53Z"/>
  <path class="cls-5" d="m459.14,415.79l17.52-4.69-11.7-43.68c23-5.51,46.51-8.6,70.15-9.24v45.22h18.14v-45.22c23.64.63,47.15,3.73,70.15,9.24l-11.7,43.68,17.52,4.69,11.7-43.68c22.67,6.73,44.58,15.8,65.37,27.08l-22.61,39.16,15.71,9.07,22.61-39.16c20.16,12.37,38.97,26.8,56.13,43.07l-31.97,31.97,12.82,12.82,31.97-31.97c16.27,17.16,30.71,35.98,43.07,56.13l-39.16,22.61,9.07,15.71,39.16-22.61c11.27,20.79,20.35,42.7,27.08,65.37l-43.68,11.7,4.69,17.52,43.68-11.7c5.51,23,8.6,46.51,9.24,70.15h-45.22v18.14h45.22c-.63,23.64-3.73,47.15-9.24,70.15l-43.68-11.7-4.69,17.52,43.68,11.7c-6.73,22.67-15.8,44.58-27.08,65.37l-39.16-22.61-9.07,15.71,39.16,22.61c-12.37,20.16-26.8,38.97-43.07,56.13l-31.97-31.97-12.82,12.82,31.97,31.97c-17.16,16.27-35.98,30.71-56.13,43.07l-22.61-39.16-15.71,9.07,22.61,39.16c-20.79,11.27-42.7,20.35-65.37,27.08l-11.7-43.68-17.52,4.69,11.7,43.68c-23,5.51-46.51,8.6-70.15,9.24v-45.22h-18.14v45.22c-23.64-.63-47.15-3.73-70.15-9.24l11.7-43.68-17.52-4.69-11.7,43.68c-22.67-6.73-44.58-15.8-65.37-27.08l22.61-39.16-15.71-9.07-22.61,39.16c-20.16-12.37-38.97-26.8-56.13-43.07l31.97-31.97-12.82-12.82-31.97,31.97c-16.27-17.16-30.71-35.98-43.07-56.13l39.16-22.61-9.07-15.71-39.16,22.61c-11.27-20.79-20.35-42.7-27.08-65.37l43.68-11.7-4.69-17.52-43.68,11.7c-5.51-23-8.61-46.51-9.24-70.15h45.22v-18.14h-45.22c.63-23.64,3.73-47.15,9.24-70.15l43.68,11.7,4.69-17.52-43.68-11.7c6.73-22.67,15.8-44.58,27.08-65.37l39.16,22.61,9.07-15.71-39.16-22.61c12.37-20.16,26.8-38.97,43.07-56.13l31.97,31.97,12.82-12.82-31.97-31.97c17.16-16.27,35.98-30.71,56.13-43.07l22.61,39.16,15.71-9.07-22.61-39.16c20.79-11.27,42.7-20.35,65.37-27.08l11.7,43.68Zm334.39,282.31c0-137.72-111.64-249.36-249.36-249.36-137.72,0-249.36,111.64-249.36,249.36,0,137.72,111.64,249.36,249.36,249.36,137.72,0,249.36-111.64,249.36-249.36h0Z"/>
  <g>
    <path class="cls-5" d="m1619.01,622.33l-11.7,43.68c-22.67-6.73-44.58-15.8-65.37-27.08l22.61-39.16-15.71-9.07-22.61,39.16c-20.16-12.37-38.97-26.8-56.13-43.07l31.97-31.97-12.82-12.82-31.97,31.97c-16.27-17.16-30.71-35.98-43.07-56.13l39.16-22.61-9.07-15.71-39.16,22.61c-11.27-20.79-20.35-42.7-27.08-65.37l43.68-11.7-4.69-17.52-43.68,11.7c-5.51-23-8.6-46.51-9.24-70.15h45.22v-18.14h-45.22c.63-23.64,3.73-47.15,9.24-70.15l43.68,11.7,4.69-17.52-43.68-11.7c6.73-22.67,15.8-44.58,27.08-65.37l39.16,22.61,9.07-15.71-39.16-22.61c12.37-20.16,26.8-38.97,43.07-56.13l31.97,31.97,12.82-12.82-31.97-31.97c17.16-16.27,35.98-30.71,56.13-43.07l22.61,39.16,15.71-9.07-22.61-39.16c20.79-11.27,42.7-20.35,65.37-27.08l11.7,43.68,17.52-4.69-11.7-43.68c23-5.51,46.51-8.6,70.15-9.24v45.22h18.14V.11c23.64.63,47.15,3.73,70.15,9.24l-11.7,43.68,17.52,4.69,11.7-43.68c22.67,6.73,44.58,15.8,65.37,27.08l-22.61,39.16,15.71,9.07,22.61-39.16c20.16,12.37,38.97,26.8,56.13,43.07l-31.97,31.97,12.82,12.82,31.97-31.97c16.27,17.16,30.71,35.98,43.07,56.13l-39.16,22.61,9.07,15.71,39.16-22.61c11.27,20.79,20.35,42.7,27.08,65.37l-43.68,11.7,4.69,17.52,43.68-11.7c5.51,23,8.6,46.51,9.24,70.15h-45.22v18.14h45.22c-.63,23.64-3.73,47.15-9.24,70.15l-43.68-11.7-4.69,17.52,43.68,11.7c-6.73,22.67-15.8,44.58-27.08,65.37l-39.16-22.61-9.07,15.71,39.16,22.61c-12.37,20.16-26.8,38.97-43.07,56.13l-31.97-31.97-12.82,12.82,31.97,31.97c-17.16,16.27-35.98,30.71-56.13,43.07l-22.61-39.16-15.71,9.07,22.61,39.16c-20.79,11.27-42.7,20.35-65.37,27.08l-11.7-43.68-17.52,4.69,11.7,43.68c-23,5.51-46.51,8.6-70.15,9.24v-45.22h-18.14v45.22c-23.64-.63-47.15-3.73-70.15-9.24l11.7-43.68-17.52-4.69Z"/>
    <path class="cls-5" d="m1747.1,95.83l-23.38,132.57c33,5.82,61.73,25.94,78.48,54.95,16.75,29.02,19.81,63.96,8.35,95.44l126.5,46.04c25.07-68.87,18.38-145.31-18.27-208.79-36.65-63.48-99.5-107.48-171.68-120.21h0Z"/>
    <path class="cls-5" d="m1790.87,412.88l103.12,86.53c-47.11,56.15-116.65,88.57-189.95,88.57s-142.83-32.43-189.95-88.57l103.12-86.53c21.54,25.67,53.32,40.49,86.83,40.49s65.29-14.82,86.83-40.49h0Z"/>
    <path class="cls-5" d="m1471.04,424.83c-25.07-68.87-18.38-145.31,18.27-208.79,36.65-63.48,99.5-107.49,171.68-120.21l23.38,132.57c-32.99,5.82-61.73,25.94-78.48,54.95-16.75,29.02-19.81,63.96-8.35,95.44l-126.5,46.04h0Z"/>
    <path class="cls-5" d="m1764.12,340.02c0-33.18-26.9-60.07-60.07-60.07s-60.07,26.9-60.07,60.07,26.9,60.07,60.07,60.07c33.18,0,60.07-26.9,60.07-60.07h0Z"/>
  </g>
  <path class="cls-5" d="m1198.61,277.29l22.41,10.93c-50.11-57.4-110.88-104.53-178.94-138.79-7.65-3.85-12.48-11.68-12.48-20.25v-.2h-45.34v-18.14h45.34V29.99c0-12.52-10.15-22.67-22.67-22.67h-45.8c-10.77,0-20.06,7.58-22.21,18.14h45.34v18.14h-45.34v27.2h45.34v18.14h-45.34v101.6c0,18.65,11.42,35.39,28.77,42.2,187.46,73.57,308.34,257.14,301.88,458.41-6.46,201.27-138.86,376.71-330.65,438.11v18.14h45.34v18.14h-45.34v77.07c47.67-13.62,93.43-33.2,136.2-58.27v-50.76h18.14v39.69c64.86-41.24,121.04-94.77,165.35-157.57l-14.55-50.73,17.43-5,10.36,36.13c40.89-63.19,69.3-133.62,83.69-207.49l-29.29-46.88,15.38-9.61,18.51,29.62c10.71-72.76,7.71-146.88-8.85-218.54l-43.61-39.26,12.13-13.48,23.16,20.85c-19.91-68.45-52.06-132.72-94.91-189.69l-57.42-28.01,7.95-16.3h0Z"/>
  <path class="cls-5" d="m898.27,1069.83l12.61,38.82c55.84-55.81,99.89-122.26,129.55-195.42l-28.83-42.75,15.03-10.14,21.73,32.22c26.61-73.43,38.35-151.42,34.56-229.44l-41.3-34.65,11.66-13.89,27.88,23.39c-7.01-76.46-28.89-150.81-64.42-218.88l-52.13-23.21,7.38-16.57,30.12,13.41c-37.84-64.27-87.54-120.77-146.45-166.51l-61.16-8.59,2.52-17.96,27.3,3.84c-20.85-14.1-42.58-26.84-65.06-38.16-7.65-3.85-12.48-11.68-12.48-20.25V45.89c0-12.52-10.15-22.67-22.67-22.67h-45.8c-10.77,0-20.06,7.58-22.21,18.14h45.34v18.14h-45.34v27.2h45.34v18.14h-45.34v101.6c0,18.65,11.42,35.39,28.77,42.2,187.46,73.57,308.34,257.14,301.88,458.41-6.46,201.27-138.86,376.71-330.65,438.11v18.14h45.34v18.14h-45.34v77.07c89.71-25.63,172.05-72.18,240.25-135.83l-15.35-47.23,17.25-5.6h0Z"/>
  <g>
    <path class="cls-3" d="m2092.01,300.79h-12.3v-4.44h29.94v4.44h-12.36v36h-5.28v-36Z"/>
    <path class="cls-3" d="m2135.99,322.03c0,10.74-7.44,15.42-14.46,15.42-7.86,0-13.92-5.76-13.92-14.94,0-9.72,6.36-15.42,14.4-15.42s13.98,6.06,13.98,14.94Zm-23.04.3c0,6.36,3.66,11.16,8.82,11.16s8.82-4.74,8.82-11.28c0-4.92-2.46-11.16-8.7-11.16s-8.94,5.76-8.94,11.28Z"/>
    <path class="cls-3" d="m2142.65,317.23c0-3.72-.12-6.72-.24-9.48h4.74l.24,4.98h.12c2.16-3.54,5.58-5.64,10.32-5.64,7.02,0,12.3,5.94,12.3,14.76,0,10.44-6.36,15.6-13.2,15.6-3.84,0-7.2-1.68-8.94-4.56h-.12v15.78h-5.22v-31.44Zm5.22,7.74c0,.78.12,1.5.24,2.16.96,3.66,4.14,6.18,7.92,6.18,5.58,0,8.82-4.56,8.82-11.22,0-5.82-3.06-10.8-8.64-10.8-3.6,0-6.96,2.58-7.98,6.54-.18.66-.36,1.44-.36,2.16v4.98Z"/>
    <path class="cls-3" d="m2104.85,407.71c-1.38.72-4.44,1.68-8.34,1.68-8.76,0-14.46-5.94-14.46-14.82s6.12-15.42,15.6-15.42c3.12,0,5.88.78,7.32,1.5l-1.2,4.08c-1.26-.72-3.24-1.38-6.12-1.38-6.66,0-10.26,4.92-10.26,10.98,0,6.72,4.32,10.86,10.08,10.86,3,0,4.98-.78,6.48-1.44l.9,3.96Z"/>
    <path class="cls-3" d="m2116.91,371.59c.06,1.8-1.26,3.24-3.36,3.24-1.86,0-3.18-1.44-3.18-3.24s1.38-3.3,3.3-3.3,3.24,1.44,3.24,3.3Zm-5.88,37.2v-29.04h5.28v29.04h-5.28Z"/>
    <path class="cls-3" d="m2125.07,388.81c0-3.42-.06-6.36-.24-9.06h4.62l.18,5.7h.24c1.32-3.9,4.5-6.36,8.04-6.36.6,0,1.02.06,1.5.18v4.98c-.54-.12-1.08-.18-1.8-.18-3.72,0-6.36,2.82-7.08,6.78-.12.72-.24,1.56-.24,2.46v15.48h-5.22v-19.98Z"/>
    <path class="cls-3" d="m2164.79,407.71c-1.38.72-4.44,1.68-8.34,1.68-8.76,0-14.46-5.94-14.46-14.82s6.12-15.42,15.6-15.42c3.12,0,5.88.78,7.32,1.5l-1.2,4.08c-1.26-.72-3.24-1.38-6.12-1.38-6.66,0-10.26,4.92-10.26,10.98,0,6.72,4.32,10.86,10.08,10.86,3,0,4.98-.78,6.48-1.44l.9,3.96Z"/>
    <path class="cls-3" d="m2170.97,366.19h5.28v42.6h-5.28v-42.6Z"/>
    <path class="cls-3" d="m2188.07,395.23c.12,7.14,4.68,10.08,9.96,10.08,3.78,0,6.06-.66,8.04-1.5l.9,3.78c-1.86.84-5.04,1.8-9.66,1.8-8.94,0-14.28-5.88-14.28-14.64s5.16-15.66,13.62-15.66c9.48,0,12,8.34,12,13.68,0,1.08-.12,1.92-.18,2.46h-20.4Zm15.48-3.78c.06-3.36-1.38-8.58-7.32-8.58-5.34,0-7.68,4.92-8.1,8.58h15.42Z"/>
  </g>
  <text class="cls-2" transform="translate(338.71 1224.8)"><tspan class="cls-8" x="0" y="0">S</tspan><tspan x="29.4" y="0">t</tspan><tspan class="cls-6" x="49.26" y="0">r</tspan><tspan class="cls-7" x="68.28" y="0">e</tspan><tspan class="cls-1" x="98.34" y="0">t</tspan><tspan x="117.84" y="0">cher A</tspan></text>
  <text class="cls-2" transform="translate(1050.92 89.25)"><tspan class="cls-8" x="0" y="0">S</tspan><tspan x="29.4" y="0">t</tspan><tspan class="cls-6" x="49.26" y="0">r</tspan><tspan class="cls-7" x="68.28" y="0">e</tspan><tspan class="cls-1" x="98.34" y="0">t</tspan><tspan x="117.84" y="0">cher B</tspan></text>
  <text class="cls-2" transform="translate(1847.87 901.28)"><tspan x="0" y="0">XL</tspan></text>
  <text class="cls-2" transform="translate(1514.1 930.4)"><tspan x="0" y="0">L</tspan></text>
  <text class="cls-2" transform="translate(1668.21 1148.86)"><tspan x="0" y="0">M</tspan></text>
  <text class="cls-2" transform="translate(2081.02 1093.13)"><tspan x="0" y="0">S</tspan></text>
  <text class="cls-2" transform="translate(1912.19 1199.7)"><tspan x="0" y="0">XS</tspan></text>
</svg>